<svg width="85" height="41" viewBox="0 0 85 41" fill="none" xmlns="http://www.w3.org/2000/svg">
<path d="M0.206268 2.89216C3.50656 1.87456 6.38286 1.36574 8.83515 1.36574C14.0835 1.36574 16.7077 3.4947 16.7077 7.75261C16.7077 10.3502 15.6649 12.3319 13.5793 13.6976C14.9774 14.0993 16.1347 14.8759 17.0515 16.0274C17.9683 17.1521 18.4266 18.5714 18.4266 20.2853C18.4266 23.4988 17.4067 25.9893 15.367 27.7567C13.3272 29.4973 10.8061 30.3677 7.80381 30.3677C4.80148 30.3677 2.20019 29.6716 0 28.2789C0.71048 25.3868 1.06572 21.4904 1.06572 16.5898C1.06572 11.6624 0.779236 7.09653 0.206268 2.89216ZM5.39735 26.0295C6.40576 26.4044 7.41421 26.5918 8.42262 26.5918C10.004 26.5918 11.3104 26.1366 12.3417 25.2261C13.3731 24.2888 13.8887 22.9766 13.8887 21.2895C13.8887 18.076 12.399 16.4693 9.41958 16.4693C7.99863 16.4693 6.55475 16.8174 5.08795 17.5137C5.08795 20.2184 5.19108 23.057 5.39735 26.0295ZM5.05357 13.9788C5.37442 13.8985 5.84426 13.8047 6.46307 13.6976C7.1048 13.5905 7.59754 13.4968 7.94132 13.4164C8.2851 13.3361 8.70909 13.2156 9.21331 13.0549C9.74043 12.8942 10.1415 12.7068 10.4165 12.4925C10.7145 12.2515 11.0124 11.957 11.3104 11.6088C11.8833 10.9393 12.1698 9.9619 12.1698 8.67649C12.1698 6.18602 10.8978 4.94078 8.35386 4.94078C7.52879 4.94078 6.52038 5.10146 5.32859 5.42281C5.14526 10.9126 5.05357 13.7646 5.05357 13.9788ZM21.9587 0.482027C22.6921 0.160676 23.4484 0 24.2277 0C25.0069 0 25.6486 0.307974 26.1528 0.923886C26.6799 1.51304 26.9435 2.3298 26.9435 3.37419C26.9435 4.39179 26.8175 6.45382 26.5654 9.56021C26.3362 12.6398 26.2216 15.0634 26.2216 16.8308C26.2216 21.1958 26.4851 25.4671 27.0123 29.6447C26.2789 29.966 25.4996 30.1267 24.6746 30.1267C22.9098 30.1267 22.0275 29.1225 22.0275 27.114C22.0275 26.15 22.1535 24.262 22.4056 21.4502C22.6577 18.6116 22.7838 16.3354 22.7838 14.6215C22.7838 8.91751 22.5088 4.20436 21.9587 0.482027ZM61.9064 13.6173C60.6915 13.1888 59.4883 12.9746 58.2967 12.9746C57.1048 12.9746 55.9817 13.3896 54.9277 14.2198C54.1026 16.1479 53.69 18.1965 53.69 20.3657C53.69 21.6243 53.8389 22.8561 54.137 24.0612C54.4347 25.2395 54.9277 25.8286 55.6152 25.8286C56.3942 25.8286 57.4373 24.5298 58.7436 21.9322C60.05 19.3346 61.104 16.563 61.9064 13.6173ZM56.7497 36.7144C58.2163 36.7144 59.3624 36.1251 60.1875 34.947C61.0126 33.7688 61.4251 32.2557 61.4251 30.4079C61.4251 29.4973 61.3677 28.1718 61.2532 26.4312C61.1614 24.6905 61.104 23.4587 61.0813 22.7356C59.4539 26.0563 58.033 28.0915 56.8184 28.8413C56.1996 29.2161 55.5465 29.4037 54.8589 29.4037C53.14 29.4037 51.8106 28.6137 50.871 27.0337C49.9312 25.4537 49.4615 23.5256 49.4615 21.2494C49.4615 18.143 50.2866 15.4249 51.9368 13.0951C53.6096 10.7385 55.7183 9.56021 58.2623 9.56021C60.829 9.56021 63.419 10.0824 66.0318 11.1268C65.3442 13.9922 65.0004 16.804 65.0004 19.5623C65.0004 20.8745 65.0805 22.508 65.2411 24.4629C65.4013 26.391 65.4817 27.8237 65.4817 28.761C65.4817 32.0548 64.5879 34.773 62.8002 36.9153C61.0126 39.0844 58.7206 40.1689 55.9246 40.1689C54.2745 40.1689 52.8533 39.7942 51.6617 39.0442C50.4929 38.3212 49.9085 37.1832 49.9085 35.6299C49.9085 34.6658 50.2179 33.8492 50.8367 33.1795C51.4555 32.5099 52.1888 32.1753 53.0369 32.1753C53.2201 32.1753 53.4494 32.2022 53.7244 32.2557C53.6557 32.6039 53.6213 32.9116 53.6213 33.1795C53.6213 34.1436 53.9307 34.9739 54.5495 35.67C55.1683 36.3662 55.9016 36.7144 56.7497 36.7144ZM80.8746 13.6173C79.6597 13.1888 78.4565 12.9746 77.2649 12.9746C76.0731 12.9746 74.9499 13.3896 73.8959 14.2198C73.0708 16.1479 72.6583 18.1965 72.6583 20.3657C72.6583 21.6243 72.8071 22.8561 73.1052 24.0612C73.4029 25.2395 73.8959 25.8286 74.5835 25.8286C75.3625 25.8286 76.4055 24.5298 77.7119 21.9322C79.0182 19.3346 80.0723 16.563 80.8746 13.6173ZM75.7179 36.7144C77.1845 36.7144 78.3307 36.1251 79.1557 34.947C79.9808 33.7688 80.3933 32.2557 80.3933 30.4079C80.3933 29.4973 80.3359 28.1718 80.2215 26.4312C80.1297 24.6905 80.0723 23.4587 80.0496 22.7356C78.4221 26.0563 77.0013 28.0915 75.7867 28.8413C75.1679 29.2161 74.5147 29.4037 73.8271 29.4037C72.1082 29.4037 70.7788 28.6137 69.8393 27.0337C68.8994 25.4537 68.4298 23.5256 68.4298 21.2494C68.4298 18.143 69.2549 15.4249 70.905 13.0951C72.5778 10.7385 74.6866 9.56021 77.2306 9.56021C79.7972 9.56021 82.3873 10.0824 85 11.1268C84.3124 13.9922 83.9687 16.804 83.9687 19.5623C83.9687 20.8745 84.0488 22.508 84.2093 24.4629C84.3695 26.391 84.45 27.8237 84.45 28.761C84.45 32.0548 83.5561 34.773 81.7685 36.9153C79.9808 39.0844 77.6888 40.1689 74.8929 40.1689C73.2427 40.1689 71.8215 39.7942 70.63 39.0442C69.4611 38.3212 68.8767 37.1832 68.8767 35.6299C68.8767 34.6658 69.1861 33.8492 69.8049 33.1795C70.4237 32.5099 71.157 32.1753 72.0051 32.1753C72.1883 32.1753 72.4176 32.2022 72.6927 32.2557C72.6239 32.6039 72.5895 32.9116 72.5895 33.1795C72.5895 34.1436 72.8989 34.9739 73.5177 35.67C74.1365 36.3662 74.8698 36.7144 75.7179 36.7144Z" fill="black"/>
<path d="M38.4638 30.6087C35.9428 30.6087 34.0864 29.7519 32.8945 28.0379C31.7027 26.2972 31.1069 23.8871 31.1069 20.8075C31.1069 17.7011 31.8976 15.0098 33.479 12.7335C35.0603 10.4573 37.0886 9.31915 39.5639 9.31915C44.6518 9.31915 47.1958 12.6666 47.1958 19.3614C47.1958 22.4946 46.3707 25.1591 44.7206 27.355C43.0704 29.5241 40.9847 30.6087 38.4638 30.6087ZM35.9885 13.7377C35.576 15.2909 35.3697 16.8441 35.3697 18.3973C35.3697 19.9505 35.4155 21.1556 35.5073 22.0125C35.599 22.8695 35.7709 23.7264 36.0229 24.5834C36.5499 26.324 37.5813 27.1943 39.1169 27.1943C40.6753 27.1943 41.6953 26.7123 42.1766 25.7483C42.6809 24.7842 42.9329 23.2979 42.9329 21.2895C42.9329 15.5855 41.7754 12.7335 39.4607 12.7335C38.1313 12.7335 36.9742 13.0682 35.9885 13.7377Z" fill="#FF6D24"/>
<path d="M1.91406 36.4188H46.9925" stroke="black"/>
<path d="M1.91406 39.3235H46.9925" stroke="black"/>
</svg>
